<svg width="199" height="54" viewBox="0 0 199 54" fill="none" xmlns="http://www.w3.org/2000/svg">
<path d="M58.7363 46.0361C58.7363 46.7603 58.3875 47.4536 57.5202 47.8419C58.6186 48.1778 59.0198 49.342 59.0198 49.9306C59.0198 52.0199 57.4538 52.6846 55.5152 52.6846H51.0737V43.3188H55.5152C57.3631 43.3188 58.7406 44.1472 58.7406 46.0361H58.7363ZM52.8131 47.0783H55.5131C56.6244 47.0783 56.9862 46.6118 56.9862 46.075C56.9862 45.6473 56.6379 44.9237 55.5131 44.9237H52.8131V47.0783ZM52.8131 51.043H55.5131C56.2367 51.043 57.2654 50.8027 57.2654 49.9177C57.2654 49.0326 56.2367 48.6308 55.5131 48.6308H52.8131V51.043Z" fill="white"/>
<path d="M61.5331 49.9698C61.6411 50.7852 62.3479 51.3738 63.4992 51.3738C64.1002 51.3738 64.8892 51.1475 65.2639 50.7592L66.3056 51.7885C65.6085 52.5126 64.475 52.8615 63.4684 52.8615C61.1934 52.8615 59.8418 51.4575 59.8418 49.3417C59.8418 47.226 61.2064 45.8857 63.3464 45.8857C65.4864 45.8857 66.9288 47.2509 66.676 49.9681H61.5331V49.9698ZM65.1203 48.6198C65.0123 47.7649 64.3443 47.3335 63.4074 47.3335C62.5224 47.3335 61.8036 47.7606 61.5639 48.6198H65.1203Z" fill="white"/>
<path d="M69.9636 44.2261V46.1015H71.7812V47.5055H69.9506V50.3578C69.9506 50.9858 70.2995 51.2958 70.8049 51.2958C71.0796 51.2885 71.3492 51.2199 71.5939 51.0949L72.0469 52.4859C71.619 52.6646 71.1607 52.7594 70.6969 52.7651C69.2675 52.8191 68.3301 52.0021 68.3301 50.3578V47.5055H67.1011V46.1015H68.3301V44.4005L69.9571 44.2261H69.9636Z" fill="white"/>
<path d="M75.3029 44.2261V46.1015H77.1211V47.5055H75.2905V50.3578C75.2905 50.9858 75.6388 51.2958 76.1448 51.2958C76.4193 51.2885 76.6887 51.2199 76.9332 51.0949L77.3868 52.4859C76.9588 52.6646 76.5005 52.7594 76.0368 52.7651C74.6069 52.8191 73.67 52.0021 73.67 50.3578V47.5055H72.4409V46.1015H73.67V44.4005L75.3002 44.2261H75.3029Z" fill="white"/>
<path d="M79.7311 49.9698C79.8391 50.7852 80.5459 51.3738 81.6967 51.3738C82.2982 51.3738 83.0872 51.1475 83.4619 50.7592L84.5036 51.7885C83.8065 52.5126 82.673 52.8615 81.6659 52.8615C79.3909 52.8615 78.0398 51.4575 78.0398 49.3417C78.0398 47.226 79.4044 45.8857 81.5444 45.8857C83.6844 45.8857 85.1268 47.2509 84.874 49.9681H79.7311V49.9698ZM83.314 48.6198C83.206 47.7649 82.538 47.3335 81.6006 47.3335C80.716 47.3335 79.9968 47.7606 79.757 48.6198H83.314Z" fill="white"/>
<path d="M87.6513 46.0885L87.7733 46.8515C88.2831 46.0361 88.9613 45.9141 89.6342 45.9141C90.307 45.9141 90.9723 46.1797 91.3341 46.5421L90.5975 47.9596C90.2616 47.6804 89.9565 47.5319 89.4209 47.5319C88.5666 47.5319 87.7733 47.9855 87.7733 49.2059V52.6862H86.1431V46.0874H87.6513V46.0885Z" fill="white"/>
<path d="M102.928 45.8998L99.8767 49.9692H99.5279L96.5465 45.8868V52.6995H94.7812V43.3315H96.8127L99.7412 47.3616L102.671 43.3315H104.689V52.7H102.923V45.8998H102.928Z" fill="white"/>
<path d="M108.014 44.2259C108.014 45.4998 106.088 45.4998 106.088 44.2259C106.088 42.952 108.014 42.952 108.014 44.2259ZM106.236 46.0619V52.6872H107.865V46.0619H106.236Z" fill="white"/>
<path d="M114.194 52.6875V49.2315C114.194 48.2282 113.645 47.4652 112.604 47.4652C111.563 47.4652 110.917 48.3065 110.917 49.3147V52.6859H109.3V46.0752H110.758L110.866 46.9738C111.533 46.3198 112.204 45.9834 113.032 45.9834C114.584 45.9834 115.826 47.1482 115.826 49.2234V52.6907H114.196L114.194 52.6875Z" fill="white"/>
<path d="M124.08 43.3317V52.6872H122.553L122.445 51.7757C121.935 52.5652 121.12 52.8314 120.318 52.8314C118.378 52.8314 116.916 51.5446 116.916 49.3754C116.916 47.0982 118.346 45.9194 120.272 45.9194C120.97 45.9194 122.05 46.2941 122.439 46.9745V43.3198H124.068L124.08 43.3317ZM118.558 49.3797C118.558 50.531 119.385 51.3205 120.432 51.3205C121.478 51.3205 122.345 50.5704 122.345 49.3797C122.345 48.189 121.46 47.4519 120.432 47.4519C119.404 47.4519 118.557 48.1906 118.557 49.3813L118.558 49.3797Z" fill="white"/>
<path d="M126.839 54H125.915L126.168 52.6738C125.793 52.609 125.54 52.3643 125.54 51.9502C125.54 50.72 127.441 50.7724 127.441 51.989C127.441 52.151 127.454 52.1116 126.839 53.9957V54Z" fill="white"/>
<path d="M139.265 46.0361C139.265 46.7603 138.916 47.4536 138.049 47.8419C139.147 48.1778 139.548 49.342 139.548 49.9306C139.548 52.0199 137.982 52.6846 136.044 52.6846H131.603V43.3188H136.044C137.892 43.3188 139.269 44.1472 139.269 46.0361H139.265ZM133.342 47.0783H136.042C137.153 47.0783 137.515 46.6118 137.515 46.075C137.515 45.6473 137.166 44.9237 136.042 44.9237H133.342V47.0783ZM133.342 51.043H136.042C136.765 51.043 137.794 50.8027 137.794 49.9177C137.794 49.0326 136.765 48.6308 136.042 48.6308H133.342V51.043Z" fill="white"/>
<path d="M142.064 49.9698C142.172 50.7852 142.879 51.3738 144.029 51.3738C144.63 51.3738 145.42 51.1475 145.794 50.7592L146.836 51.7885C146.139 52.5126 145.006 52.8615 143.999 52.8615C141.724 52.8615 140.373 51.4575 140.373 49.3417C140.373 47.226 141.737 45.8857 143.877 45.8857C146.017 45.8857 147.459 47.2509 147.207 49.9681H142.064V49.9698ZM145.651 48.6198C145.543 47.7649 144.875 47.3335 143.938 47.3335C143.053 47.3335 142.334 47.7606 142.094 48.6198H145.651Z" fill="white"/>
<path d="M150.493 44.2261V46.1015H152.31V47.5055H150.48V50.3578C150.48 50.9858 150.828 51.2958 151.334 51.2958C151.609 51.2885 151.878 51.2199 152.123 51.0949L152.577 52.4881C152.149 52.6667 151.691 52.7615 151.227 52.7673C149.798 52.8213 148.861 52.0042 148.861 50.3599V47.5077H147.632V46.1037H148.861V44.4027L150.491 44.2282L150.493 44.2261Z" fill="white"/>
<path d="M155.832 44.2261V46.1015H157.65V47.5055H155.817V50.3578C155.817 50.9858 156.165 51.2958 156.671 51.2958C156.946 51.2885 157.216 51.2199 157.46 51.0949L157.913 52.4859C157.485 52.6646 157.027 52.7594 156.563 52.7651C155.134 52.8191 154.197 52.0021 154.197 50.3578V47.5055H152.968V46.1015H154.197V44.4005L155.827 44.2261H155.832Z" fill="white"/>
<path d="M160.26 49.9698C160.368 50.7852 161.076 51.3738 162.226 51.3738C162.827 51.3738 163.616 51.1475 163.991 50.7592L165.033 51.7885C164.336 52.5126 163.202 52.8615 162.195 52.8615C159.92 52.8615 158.569 51.4575 158.569 49.3417C158.569 47.226 159.933 45.8857 162.073 45.8857C164.213 45.8857 165.656 47.2509 165.403 49.9681H160.26V49.9698ZM163.842 48.6198C163.734 47.7649 163.067 47.3335 162.13 47.3335C161.245 47.3335 160.526 47.7606 160.286 48.6198H163.842Z" fill="white"/>
<path d="M168.18 46.0885L168.302 46.8515C168.811 46.0361 169.49 45.9141 170.163 45.9141C170.835 45.9141 171.501 46.1797 171.862 46.5421L171.126 47.9596C170.791 47.6804 170.485 47.5319 169.949 47.5319C169.095 47.5319 168.302 47.9855 168.302 49.2059V52.6862H166.671V46.0874H168.179L168.18 46.0885Z" fill="white"/>
<path d="M177.062 43.3188V51.056H181.878V52.6873H175.297V43.3188H177.062Z" fill="white"/>
<path d="M184.786 44.2259C184.786 45.4998 182.859 45.4998 182.859 44.2259C182.859 42.952 184.786 42.952 184.786 44.2259ZM183.004 46.0619V52.6872H184.634V46.0619H183.004Z" fill="white"/>
<path d="M186.642 52.6872V47.615H185.413V46.184H186.642V45.7439C186.642 43.977 187.83 43.1616 189.157 43.1616C189.733 43.1616 190.334 43.349 190.871 43.6978L190.269 44.915C189.92 44.6882 189.602 44.5662 189.266 44.5662C188.704 44.5662 188.277 44.9409 188.277 45.7439V46.184H190.215V47.615H188.275V52.6872H186.641H186.642Z" fill="white"/>
<path d="M192.893 49.9698C193.001 50.7852 193.708 51.3738 194.859 51.3738C195.46 51.3738 196.249 51.1475 196.624 50.7592L197.665 51.7885C196.968 52.5126 195.835 52.8615 194.828 52.8615C192.553 52.8615 191.202 51.4575 191.202 49.3417C191.202 47.226 192.566 45.8857 194.706 45.8857C196.846 45.8857 198.289 47.2509 198.036 49.9681H192.893V49.9698ZM196.476 48.6198C196.368 47.7649 195.7 47.3335 194.762 47.3335C193.878 47.3335 193.159 47.7606 192.919 48.6198H196.476Z" fill="white"/>
<path d="M20.8381 28.2101C19.5619 28.3132 18.2786 28.1376 17.0771 27.6955C15.8755 27.2535 14.7844 26.5554 13.8794 25.6498C12.9744 24.7442 12.2771 23.6526 11.8358 22.4508C11.3946 21.2489 11.2198 19.9655 11.3238 18.6894C11.6591 14.4104 15.1243 10.9431 19.4044 10.6029C20.6802 10.4995 21.9633 10.6747 23.1646 11.1165C24.366 11.5582 25.4569 12.2559 26.3618 13.1612C27.2667 14.0666 27.9639 15.1578 28.4051 16.3594C28.8464 17.5609 29.021 18.8441 28.917 20.1199C28.5811 24.3983 25.1165 27.8699 20.8359 28.2058M20.1236 0C7.60158 0 0 6.05394 0 19.3784C0 21.1885 0.135 23.0024 0.47952 24.7822C0.77598 26.3304 1.23552 27.8527 1.89162 29.2874C2.48568 30.5909 3.25886 31.805 4.18878 32.8946C4.75642 33.5662 5.38199 34.1865 6.05826 34.7485C6.48108 35.093 6.91686 35.4591 7.42284 35.6902C7.97634 35.9435 8.58222 35.9694 9.17459 35.8646C9.62325 35.7852 10.0489 35.6081 10.4215 35.3457C10.7746 35.0973 11.0576 34.6977 11.3324 34.3688C11.9513 33.6274 12.5744 32.96 13.3153 32.3406C14.0216 31.752 14.8538 31.2854 15.6913 30.9145C17.0872 30.302 18.595 29.9858 20.1193 29.9858C21.6437 29.9858 23.1514 30.302 24.5473 30.9145C25.3843 31.2854 26.217 31.752 26.9233 32.3406C27.6642 32.9557 28.2879 33.6274 28.9067 34.3688C29.1811 34.6961 29.4689 35.1016 29.8177 35.3457C30.1911 35.6062 30.6161 35.7832 31.064 35.8646C31.658 35.9694 32.2672 35.9435 32.8163 35.6902C33.3218 35.4591 33.7619 35.093 34.1804 34.7485C34.8567 34.1864 35.4824 33.566 36.0504 32.8946C36.9802 31.805 37.7531 30.5909 38.347 29.2874C39.0053 27.8527 39.4632 26.3304 39.7597 24.7822C40.1036 23.0002 40.2392 21.1885 40.2392 19.3784C40.243 6.05394 32.643 0 20.1236 0Z" fill="white"/>
<path d="M61.9527 26.649C58.7273 26.649 54.883 25.393 54.883 19.4044C54.883 13.4158 58.7273 12.1949 61.9527 12.1949C65.1781 12.1949 69.0224 13.4466 69.0224 19.4044C69.0224 25.3622 65.1776 26.649 61.9527 26.649ZM61.9527 7.97314C54.3641 7.97314 50.3589 11.9286 50.3589 19.4087C50.3589 26.8888 54.3689 30.8751 61.9527 30.8751C69.5364 30.8751 73.5465 26.9104 73.5465 19.4087C73.5465 11.907 69.5364 7.97314 61.9527 7.97314Z" fill="white"/>
<path d="M103.669 8.67522H100.822C100.478 8.66967 100.134 8.70191 99.7964 8.77134C99.5069 8.83216 99.2363 8.96182 99.0075 9.14934C98.7596 9.35339 98.5538 9.60374 98.4016 9.88644C98.1928 10.267 98.0163 10.6644 97.874 11.0744L92.3471 25.6204C92.2818 25.7824 92.1905 25.8035 92.1079 25.8035H91.7893C91.7067 25.8035 91.6106 25.7819 91.5501 25.6204L86.0232 11.0744C85.8788 10.6652 85.7023 10.268 85.4956 9.88644C85.3407 9.60683 85.1352 9.35838 84.8897 9.15366C84.6549 8.96525 84.3785 8.83565 84.0835 8.77566C83.7404 8.7083 83.3914 8.67609 83.0418 8.67954H80.1431C79.1581 8.67954 78.4826 8.94144 78.1381 9.45606C77.7984 9.96204 77.637 10.7861 77.637 11.9768V29.3707C77.637 29.8897 77.9032 30.1775 78.393 30.1775H81.1043C81.5752 30.1775 81.8322 29.8897 81.8322 29.3707V13.5428C81.8322 13.3808 81.876 13.3808 81.9019 13.3808H82.1416C82.1902 13.3748 82.2393 13.3871 82.2792 13.4154C82.3192 13.4437 82.3471 13.4858 82.3576 13.5336L87.7231 27.1114C87.9032 27.5963 88.1249 28.0648 88.3857 28.5116C88.5875 28.8624 88.8366 29.1838 89.126 29.4668C89.3909 29.718 89.7102 29.9045 90.0591 30.0117C90.4486 30.1231 90.8524 30.1761 91.2574 30.1688H92.5345C92.9397 30.1764 93.3437 30.1234 93.7333 30.0117C94.0825 29.903 94.4017 29.7148 94.6659 29.462C94.9569 29.1804 95.2065 28.8589 95.4073 28.5073C95.6641 28.0584 95.8856 27.5902 96.0699 27.107L101.439 13.525C101.474 13.4207 101.535 13.3813 101.649 13.3813H101.888C101.914 13.3813 101.958 13.3813 101.958 13.5433V29.3653C101.958 29.8843 102.215 30.1721 102.686 30.1721H105.397C105.883 30.1721 106.153 29.8843 106.153 29.3653V11.9681C106.153 10.7774 105.987 9.95286 105.651 9.44742C105.307 8.9328 104.64 8.6709 103.673 8.6709" fill="white"/>
<path d="M132.256 8.67529H129.465C128.995 8.67529 128.737 8.96311 128.737 9.48205V25.3041C128.737 25.4661 128.693 25.4661 128.667 25.4661H128.428C128.323 25.4661 128.257 25.4266 128.201 25.3176L118.318 10.5302C118.111 10.2046 117.886 9.89145 117.642 9.59221C117.457 9.36911 117.24 9.17506 116.997 9.01657C116.753 8.86964 116.482 8.7746 116.199 8.73739C115.841 8.69344 115.48 8.67305 115.119 8.67637H112.783C111.928 8.67637 111.288 8.91181 110.869 9.37405C110.451 9.83629 110.246 10.6868 110.246 11.9693V29.3675C110.246 29.8865 110.512 30.1743 111.002 30.1743H113.792C114.258 30.1743 114.52 29.8865 114.52 29.3675V13.5455C114.52 13.3835 114.563 13.3835 114.59 13.3835H114.829C114.903 13.3835 114.982 13.4376 115.056 13.5321L124.972 28.3216C125.188 28.6609 125.427 28.9856 125.687 29.2936C125.874 29.5158 126.098 29.7046 126.349 29.8519C126.59 29.9875 126.855 30.075 127.129 30.1095C127.474 30.1538 127.823 30.1742 128.171 30.1705H130.459C131.313 30.1705 131.954 29.9351 132.372 29.4729C132.791 29.0106 132.992 28.1553 132.992 26.8776V9.48205C132.992 8.96311 132.734 8.67529 132.263 8.67529" fill="white"/>
<path d="M140.703 8.67529H137.831C137.345 8.67529 137.075 8.96311 137.075 9.48205V29.3622C137.075 29.8811 137.341 30.1689 137.831 30.1689H140.703C141.17 30.1689 141.431 29.8811 141.431 29.3622V9.48205C141.431 8.96419 141.174 8.67529 140.703 8.67529Z" fill="white"/>
<path d="M164.793 8.67529H153.099C151.744 8.67529 150.576 8.82379 149.63 9.12025C148.671 9.41671 147.878 9.90109 147.268 10.5507C146.657 11.2003 146.213 12.0508 145.934 13.0806C145.659 14.1012 145.515 15.3573 145.515 16.8136V29.3622C145.515 29.8811 145.781 30.1689 146.271 30.1689H149.144C149.615 30.1689 149.872 29.8811 149.872 29.3622V21.6245H160.476C160.943 21.6245 161.204 21.3367 161.204 20.8177V18.4234C161.204 17.7165 160.751 17.6134 160.476 17.6134H149.869V17.1506C149.869 16.3746 149.926 15.7158 150.039 15.1969C150.147 14.6866 150.332 14.2789 150.579 13.9846C150.827 13.6903 151.163 13.4829 151.586 13.3609C152.026 13.234 152.589 13.1686 153.264 13.1686H164.801C165.285 13.1686 165.557 12.8808 165.557 12.3619V9.48313C165.557 8.96419 165.292 8.67637 164.801 8.67637" fill="white"/>
<path d="M173.259 8.67529H170.387C169.901 8.67529 169.631 8.96311 169.631 9.48205V29.3622C169.631 29.8811 169.897 30.1689 170.387 30.1689H173.259C173.729 30.1689 173.987 29.8811 173.987 29.3622V9.48205C173.986 8.96419 173.728 8.67529 173.259 8.67529Z" fill="white"/>
<path d="M197.696 8.67529H178.821C178.338 8.67529 178.065 8.96311 178.065 9.48205V12.452C178.065 12.992 178.331 13.2891 178.821 13.2891H185.416C185.593 13.2893 185.762 13.3598 185.887 13.4849C186.012 13.61 186.083 13.7796 186.083 13.9565V29.3616C186.083 29.8806 186.34 30.1684 186.81 30.1684H189.709C190.176 30.1684 190.437 29.8806 190.437 29.3616V13.957C190.437 13.7801 190.507 13.6104 190.632 13.4853C190.757 13.3601 190.927 13.2897 191.104 13.2896H197.698C198.184 13.2896 198.454 12.9931 198.454 12.4526V9.48259C198.454 8.96365 198.189 8.67583 197.698 8.67583" fill="white"/>
</svg>
