<svg width="11" height="6" viewBox="0 0 11 6" fill="none" xmlns="http://www.w3.org/2000/svg">
<path d="M10.8611 0.166693C10.7608 0.0592709 10.6373 0.0037694 10.4905 0.000188828C10.3437 -0.00339174 10.2201 0.0449481 10.1199 0.145208L5.50072 4.75728L0.881576 0.145208C0.781315 0.0449481 0.65778 -0.00339174 0.51097 0.000188828C0.36416 0.0037694 0.240625 0.0592709 0.140365 0.166693C0.0401042 0.274115 -0.00644531 0.39944 0.000716146 0.542669C0.0078776 0.685898 0.0615885 0.807643 0.161849 0.907904L5.13548 5.86372C5.18561 5.90669 5.2429 5.94071 5.30736 5.96577C5.37181 5.99084 5.43626 6.00337 5.50072 6.00337C5.56517 6.00337 5.62783 5.99084 5.6887 5.96577C5.74958 5.94071 5.80866 5.90669 5.86595 5.86372L10.8396 0.907904C10.9398 0.807643 10.9936 0.685898 11.0007 0.542669C11.0079 0.39944 10.9613 0.274115 10.8611 0.166693Z" fill="#048CFE"/>
</svg>
