<svg width="24" height="26" viewBox="0 0 24 26" fill="none" xmlns="http://www.w3.org/2000/svg">
<path fill-rule="evenodd" clip-rule="evenodd" d="M12 0C15.0325 0 18.4515 1.11712 20.6117 3.12161C22.7738 5.12782 24 7.86177 24 10.7254V14.4717C24 14.5355 23.9885 14.5966 23.9732 14.6557C23.9901 14.7794 24 14.905 24 15.0322V18.8168C24 19.7395 23.5435 20.5814 22.8081 21.1739C22.2906 21.5907 21.6561 21.865 20.9826 21.9921C20.6944 23.1911 19.6368 24.135 18.3647 24.7726C16.8259 25.5439 14.7515 26 12.5 26C12.0946 26 11.766 25.6705 11.766 25.2642C11.766 24.8578 12.0946 24.5283 12.5 24.5283C14.5731 24.5283 16.4132 24.1052 17.7081 23.4561C18.5721 23.023 19.1061 22.5395 19.3769 22.0755H18.5683C17.5886 22.0755 16.6252 21.7629 15.894 21.1739C15.1586 20.5814 14.7022 19.7395 14.7021 18.8168V15.0322C14.7022 14.1096 15.1586 13.2676 15.894 12.6752C16.6252 12.0862 17.5886 11.7736 18.5683 11.7736H20.1339C20.9946 11.7736 21.8427 12.0149 22.5319 12.473V10.7254C22.5319 8.29033 21.4897 5.94199 19.6139 4.20143C17.7362 2.4592 14.678 1.4717 12 1.4717C9.32197 1.4717 6.26384 2.4592 4.3861 4.20143C2.51028 5.94199 1.46813 8.29033 1.46809 10.7254V12.473C2.15728 12.0149 3.00543 11.7736 3.86615 11.7736H5.43172C6.41137 11.7736 7.37478 12.0862 8.10601 12.6752C8.84142 13.2676 9.29783 14.1096 9.29787 15.0322V18.8168C9.29783 19.7395 8.84142 20.5814 8.10601 21.1739C7.37478 21.7629 6.41137 22.0755 5.43172 22.0755H3.86615C2.8865 22.0755 1.92309 21.7629 1.19186 21.1739C0.456452 20.5814 4.51317e-05 19.7395 0 18.8168V15.0322C6.2172e-06 14.905 0.00891452 14.7794 0.0258062 14.6557C0.0106017 14.5967 1.97843e-08 14.5355 0 14.4717V10.7254C4.96912e-05 7.86177 1.22625 5.12782 3.38826 3.12161C5.5485 1.11712 8.96753 0 12 0ZM3.86615 13.2453C3.18455 13.2453 2.55479 13.4649 2.11133 13.8221C1.67214 14.1759 1.46813 14.6167 1.46809 15.0322V18.8168C1.46813 19.2324 1.67214 19.6732 2.11133 20.027C2.55479 20.3842 3.18455 20.6038 3.86615 20.6038H5.43172C6.11332 20.6038 6.74308 20.3842 7.18654 20.027C7.62573 19.6732 7.82974 19.2324 7.82979 18.8168V15.0322C7.82974 14.6167 7.62573 14.1759 7.18654 13.8221C6.74308 13.4649 6.11332 13.2453 5.43172 13.2453H3.86615ZM18.5683 13.2453C17.8867 13.2453 17.2569 13.4649 16.8135 13.8221C16.3743 14.1759 16.1703 14.6167 16.1702 15.0322V18.8168C16.1703 19.2324 16.3743 19.6732 16.8135 20.027C17.2569 20.3842 17.8867 20.6038 18.5683 20.6038H20.1339C20.8155 20.6038 21.4452 20.3842 21.8887 20.027C22.3279 19.6732 22.5319 19.2324 22.5319 18.8168V15.0322C22.5319 14.6167 22.3279 14.1759 21.8887 13.8221C21.4452 13.4649 20.8155 13.2453 20.1339 13.2453H18.5683Z" fill="white"/>
</svg>
