<svg width="133" height="24" viewBox="0 0 133 24" fill="none" xmlns="http://www.w3.org/2000/svg">
<path d="M13.9334 18.8469C13.0806 18.9161 12.2231 18.799 11.4201 18.5038C10.6171 18.2087 9.88785 17.7425 9.2829 17.1376C8.67795 16.5326 8.21176 15.8034 7.9166 15.0004C7.62145 14.1974 7.5044 13.3398 7.57356 12.4871C7.79885 9.62729 10.116 7.31017 12.9758 7.08487C13.8285 7.01561 14.6861 7.13259 15.4892 7.42771C16.2922 7.72282 17.0215 8.18902 17.6265 8.79399C18.2314 9.39895 18.6976 10.1282 18.9927 10.9313C19.2879 11.7343 19.4048 12.5919 19.3356 13.4447C19.1103 16.3045 16.7935 18.6219 13.9337 18.8478M13.4537 0C5.08394 0 0 4.04447 0 12.9485C0 14.1574 0.0917953 15.3694 0.320688 16.5577C0.520182 17.5926 0.824972 18.6102 1.26626 19.5687C1.91149 20.9767 2.8635 22.2226 4.05257 23.2151C4.33366 23.4454 4.62765 23.6896 4.96544 23.845C5.33473 24.0148 5.74151 24.031 6.1378 23.9611C6.43729 23.9074 6.72154 23.7893 6.97088 23.6149C7.20547 23.4496 7.39716 23.1806 7.58045 22.9613C7.99414 22.4663 8.41143 22.0187 8.90581 21.6071C9.3771 21.2147 9.93388 20.9006 10.4934 20.654C11.4266 20.2443 12.4346 20.0328 13.4538 20.0328C14.473 20.0328 15.4811 20.2443 16.4143 20.654C16.9741 20.9006 17.5302 21.2147 18.0018 21.6071C18.4962 22.0187 18.9138 22.4663 19.3272 22.9613C19.5105 23.1806 19.7019 23.4496 19.9368 23.6149C20.186 23.7894 20.4703 23.9076 20.7698 23.9611C21.1658 24.031 21.5726 24.0148 21.9422 23.845C22.2797 23.6902 22.5737 23.446 22.8548 23.2151C24.0441 22.2227 24.9962 20.9768 25.6414 19.5687C26.0824 18.6087 26.3875 17.5926 26.5866 16.5577C26.8155 15.3694 26.9073 14.1577 26.9073 12.9485C26.9073 4.04447 21.8243 0 13.4537 0Z" fill="#2332C3"/>
<path d="M41.4239 17.8056C39.2681 17.8056 36.6981 16.9657 36.6981 12.9662C36.6981 8.98351 39.2681 8.14774 41.4239 8.14774C43.5796 8.14774 46.1493 8.98351 46.1493 12.9662C46.1493 16.9657 43.5799 17.8056 41.4239 17.8056ZM41.4239 5.32603C36.3516 5.32603 33.6712 7.96804 33.6712 12.9668C33.6712 17.9787 36.3516 20.6279 41.4239 20.6279C46.4961 20.6279 49.1762 17.9787 49.1762 12.9668C49.1762 7.96804 46.4958 5.32603 41.4239 5.32603Z" fill="#191919"/>
<path d="M69.3131 5.79461H67.4111C67.1807 5.79121 66.9505 5.81222 66.7245 5.85731C66.5313 5.89883 66.3506 5.98526 66.1971 6.1096C66.0326 6.24667 65.8952 6.41334 65.7921 6.60099C65.6763 6.80228 65.5608 7.06147 65.439 7.39446L61.7428 17.1141C61.7002 17.2218 61.6375 17.2365 61.5823 17.2365H61.3693C61.3135 17.2365 61.2508 17.2218 61.2091 17.1151L57.513 7.39566C57.4165 7.12168 57.2985 6.85576 57.1602 6.60039C57.0562 6.4134 56.9188 6.24706 56.7549 6.1096C56.5981 5.98409 56.4137 5.89762 56.217 5.85731C55.988 5.81244 55.755 5.79143 55.5216 5.79461H53.5849C52.9249 5.79461 52.4749 5.96861 52.2439 6.3121C52.0177 6.64929 51.9079 7.20037 51.9079 7.99534V19.6185C51.9079 19.9668 52.0879 20.1585 52.4119 20.1585H54.2245C54.5383 20.1585 54.7107 19.9671 54.7107 19.6185V9.04771C54.7107 8.94031 54.7407 8.94031 54.7578 8.94031H54.9177C54.9951 8.94031 55.0362 8.96851 55.0602 9.04231L58.6505 18.114C58.7723 18.4371 58.9201 18.7498 59.0924 19.0491C59.2278 19.2837 59.3949 19.4985 59.5889 19.6875C59.7656 19.8556 59.9787 19.9807 60.2117 20.0532C60.4379 20.1231 60.7078 20.1582 61.0138 20.1582H61.8664C62.1724 20.1582 62.4424 20.1231 62.6674 20.0532C62.901 19.9809 63.1147 19.8555 63.2917 19.6869C63.4856 19.4981 63.6526 19.2835 63.7879 19.0491C63.96 18.7498 64.1077 18.4371 64.2294 18.114L67.8209 9.03781C67.844 8.96851 67.8851 8.94031 67.9622 8.94031H68.1224C68.1398 8.94031 68.1701 8.94031 68.1701 9.04771V19.6185C68.1701 19.9668 68.3426 20.1585 68.6555 20.1585H70.4671C70.792 20.1585 70.9702 19.9671 70.9702 19.6185V7.99534C70.9702 7.19947 70.8604 6.64869 70.6345 6.3121C70.4038 5.96861 69.9587 5.79461 69.3119 5.79461" fill="#191919"/>
<path d="M88.4282 5.79461H86.5625C86.2487 5.79461 86.0765 5.98661 86.0765 6.33459V16.9042C86.0765 17.0121 86.0465 17.0121 86.0285 17.0121H85.8683C85.7972 17.0121 85.7534 16.9852 85.7168 16.9123L79.1069 7.03147C78.9686 6.81387 78.8177 6.60452 78.6551 6.40449C78.5319 6.25476 78.386 6.12521 78.2228 6.0205C78.0594 5.92281 77.8776 5.8598 77.6888 5.83541C77.4487 5.80495 77.2067 5.79112 76.9646 5.79401H75.4014C74.8314 5.79401 74.4006 5.95061 74.1219 6.2605C73.8432 6.57039 73.707 7.13947 73.707 7.99534V19.6185C73.707 19.9668 73.887 20.1584 74.2107 20.1584H76.077C76.3904 20.1584 76.5629 19.9671 76.5629 19.6185V9.04771C76.5629 8.94031 76.5929 8.94031 76.6103 8.94031H76.7699C76.8206 8.94031 76.8731 8.97571 76.922 9.04021L83.5518 18.9213C83.6967 19.1482 83.857 19.3648 84.0318 19.5696C84.1575 19.7177 84.3068 19.8441 84.4737 19.9437C84.6353 20.0331 84.8121 20.0918 84.9951 20.117C85.2265 20.1474 85.4598 20.1612 85.6931 20.1581H87.2231C87.7931 20.1581 88.2233 20.0016 88.5017 19.6917C88.78 19.3818 88.9165 18.8118 88.9165 17.958V6.33489C88.9165 5.98661 88.744 5.79491 88.4312 5.79491" fill="#191919"/>
<path d="M94.0764 5.79461H92.1564C91.8312 5.79461 91.6531 5.98661 91.6531 6.3346V19.6182C91.6531 19.9665 91.8312 20.1581 92.1564 20.1581H94.0764C94.3896 20.1581 94.5621 19.9668 94.5621 19.6182V6.3349C94.5621 5.98661 94.3896 5.79491 94.0764 5.79491" fill="#191919"/>
<path d="M110.183 5.79461H102.364C101.457 5.79461 100.676 5.89451 100.043 6.0922C99.4015 6.292 98.8708 6.61389 98.4643 7.04947C98.0578 7.48506 97.7578 8.05294 97.5713 8.73932C97.3862 9.4206 97.292 10.2606 97.292 11.2346V19.6185C97.292 19.9668 97.472 20.1584 97.796 20.1584H99.7159C100.03 20.1584 100.202 19.9671 100.202 19.6185V14.4478H107.293C107.606 14.4478 107.778 14.2564 107.778 13.9079V12.3086C107.778 11.8373 107.475 11.7686 107.293 11.7686H100.202V11.4575C100.202 10.9382 100.239 10.4976 100.315 10.152C100.389 9.80968 100.51 9.53789 100.676 9.342C100.843 9.14611 101.066 9.00781 101.35 8.92501C101.643 8.84011 102.02 8.79662 102.47 8.79662H110.183C110.508 8.79662 110.687 8.60522 110.687 8.25663V6.3349C110.687 5.98661 110.508 5.79491 110.183 5.79491" fill="#191919"/>
<path d="M115.841 5.79461H113.921C113.596 5.79461 113.418 5.98661 113.418 6.3346V19.6182C113.418 19.9665 113.598 20.1581 113.921 20.1581H115.841C116.155 20.1581 116.327 19.9668 116.327 19.6182V6.3349C116.327 5.98661 116.155 5.79491 115.841 5.79491" fill="#191919"/>
<path d="M132.181 5.79461H119.562C119.238 5.79461 119.059 5.98661 119.059 6.3346V8.31873C119.059 8.68022 119.239 8.87941 119.562 8.87941H123.971C124.089 8.87949 124.203 8.92661 124.287 9.01042C124.37 9.09423 124.418 9.20788 124.418 9.3264V19.6182C124.418 19.9665 124.59 20.1581 124.903 20.1581H126.84C127.153 20.1581 127.326 19.9668 127.326 19.6182V9.3267C127.326 9.20815 127.373 9.09446 127.457 9.01063C127.541 8.92681 127.654 8.87971 127.773 8.87971H132.181C132.506 8.87971 132.685 8.68052 132.685 8.31903V6.3349C132.685 5.98661 132.505 5.79491 132.181 5.79491" fill="#191919"/>
</svg>
